<svg width="100%" height="100%" viewBox="0 0 129 112" fill="none" xmlns="http://www.w3.org/2000/svg">
<path d="M127 75.5C127 79.3 123.9 82.4 120.1 82.4H8.9C5.1 82.4 2 79.3 2 75.5V35.9C2 32.1 5.1 29 8.9 29H120.1C123.9 29 127 32.1 127 35.9V75.5Z" fill="#003A2B"/>
<path d="M23.5 37.3H29.5V64.7C26.5 65.3 24.2 65.5 21.8 65.5C14.6 65.5 10.8 62.2 10.8 56C10.8 50 14.8 46 21 46C22 46 22.7 46.1 23.6 46.3V37.3H23.5V37.3ZM23.5 51.1C22.8 50.9 22.2 50.8 21.5 50.8C18.5 50.8 16.8 52.6 16.8 55.9C16.8 59.1 18.5 60.8 21.5 60.8C22.2 60.8 22.7 60.8 23.5 60.6V51.1ZM38.9001 46.5V60.2C38.9001 64.9 38.6 67.2 37.5 69.2C36.5 71.1 35.3001 72.3 32.7001 73.6L27.2001 71C29.8001 69.8 31.1 68.7 31.9 67C32.7 65.3 33 63.3 33 58.2V46.5H38.9001V46.5ZM33 37.4H38.9001V43.5H33V37.4ZM42.5 47.8C45.1 46.6 47.6 46 50.3 46C53.3 46 55.3001 46.8 56.2001 48.4C56.7001 49.3 56.9001 50.4 56.9001 52.9V64.9C54.2001 65.3 50.9001 65.6 48.4001 65.6C43.4001 65.6 41.2001 63.9 41.2001 60C41.2001 55.8 44.2001 53.9 51.4001 53.3V52C51.4001 50.9 50.9001 50.5 49.4001 50.5C47.2001 50.5 44.7001 51.1 42.4001 52.3V47.8H42.5V47.8ZM51.7001 57.2C47.8001 57.6 46.5 58.2 46.5 59.7C46.5 60.9 47.2 61.4 48.8 61.4C49.7 61.4 50.5 61.3 51.6 61.1V57.2H51.7001V57.2ZM59.8 47.4C63.3 46.5 66.2 46.1 69.1 46.1C72.1 46.1 74.3 46.8 75.6 48.1C76.8 49.4 77.2 50.8 77.2 53.7V65.3H71.3001V53.9C71.3001 51.6 70.5001 50.8 68.4001 50.8C67.6001 50.8 66.9 50.9 65.7 51.2V65.3H59.8V47.4V47.4ZM79.5 68.5C81.6 69.6 83.7 70.1 85.8 70.1C89.7 70.1 91.3 68.5 91.3 64.8V64.7C90.1 65.3 89 65.5 87.5 65.5C82.3 65.5 79 62.1 79 56.7C79 50 83.9 46.2 92.5 46.2C95 46.2 97.4 46.5 100.2 47L98.2 51.3C96.6 51 98.1 51.3 96.9 51.1V51.7L97 54.2V57.4C97 58.2 97 59 97.1 59.8V61.4C97.1 66.5 96.7 68.9 95.4 70.8C93.6 73.7 90.4 75.1 85.8 75.1C83.5 75.1 81.5 74.8 79.4 73.9V68.5H79.5V68.5ZM91.3 50.9H90.7C89.5 50.9 88.2 51.2 87.3 51.7C85.9 52.5 85.1 54 85.1 56C85.1 59 86.6 60.7 89.2 60.7C90 60.7 90.7 60.5 91.4 60.3V50.9H91.3ZM109.5 46C115.4 46 119 49.7 119 55.8C119 62 115.2 65.9 109.2 65.9C103.3 65.9 99.6 62.2 99.6 56.2C99.7 49.9 103.5 46 109.5 46V46ZM109.4 61C111.7 61 113 59.1 113 55.8C113 52.6 111.7 50.6 109.4 50.6C107.1 50.6 105.7 52.5 105.7 55.8C105.8 59.2 107.1 61 109.4 61Z" fill="white"/>
</svg>
