<svg width="100%" height="100%" viewBox="0 0 512 512" fill="none" xmlns="http://www.w3.org/2000/svg">
<path d="M445.217 500.87H44.522C32.227 500.87 22.261 490.904 22.261 478.609V66.783C22.261 42.195 42.194 22.261 66.783 22.261H445.218C469.806 22.261 489.74 42.194 489.74 66.783V456.348C489.739 480.936 469.806 500.87 445.217 500.87Z" fill="#EAFFFF"/>
<path d="M372.369 125.288C371.136 128.679 367.935 130.785 364.523 130.785C363.576 130.785 362.613 130.622 361.67 130.28L109.419 38.662C109.358 38.738 109.303 38.816 109.24 38.889L31.327 127.932C29.676 129.818 27.365 130.783 25.042 130.783C23.091 130.783 21.132 130.103 19.548 128.718C16.079 125.682 15.727 120.408 18.762 116.939L96.675 27.896C97.928 26.465 99.563 25.573 101.294 25.222C103.292 21.811 107.495 20.2 111.341 21.599L367.377 114.592C371.71 116.165 373.945 120.954 372.369 125.288ZM422.957 114.087C418.347 114.087 414.609 117.825 414.609 122.435V256C414.609 260.61 418.347 264.348 422.957 264.348C427.567 264.348 431.305 260.61 431.305 256V122.435C431.304 117.825 427.567 114.087 422.957 114.087Z" fill="#D3D5BB"/>
<path d="M114.087 8.348V130.783C114.087 135.393 110.349 139.131 105.739 139.131C101.129 139.131 97.391 135.393 97.391 130.783V8.348C97.391 3.738 101.129 0 105.739 0C110.349 0 114.087 3.738 114.087 8.348Z" fill="#DDB900"/>
<path d="M44.522 200.348H22.261C16.114 200.348 11.131 195.365 11.131 189.218V122.435H55.653V189.218C55.652 195.365 50.669 200.348 44.522 200.348Z" fill="#B9BAA6"/>
<path d="M144.696 467.478H89.043V122.435H144.695V467.478H144.696Z" fill="#DDB900"/>
<path d="M211.478 467.478V512H11.13V467.478C11.13 461.331 16.113 456.348 22.26 456.348H200.347C206.495 456.348 211.478 461.331 211.478 467.478Z" fill="#B9BAA6"/>
<path d="M454.87 132.073H20.7829C16.1729 132.073 12.4349 128.335 12.4349 123.725C12.4349 119.115 16.1729 115.377 20.7829 115.377H454.87C459.48 115.377 463.218 119.115 463.218 123.725C463.218 128.335 459.48 132.073 454.87 132.073ZM457.652 271.203C453.042 271.203 449.304 274.941 449.304 279.551C449.304 287.223 443.063 293.464 435.391 293.464C427.719 293.464 421.478 287.223 421.478 279.551C421.478 271.879 427.719 265.638 435.391 265.638C440.001 265.638 443.739 261.9 443.739 257.29C443.739 252.68 440.001 248.942 435.391 248.942C418.513 248.942 404.782 262.672 404.782 279.551C404.782 296.429 418.512 310.16 435.391 310.16C452.269 310.16 466 296.43 466 279.551C466 274.941 462.263 271.203 457.652 271.203ZM132.23 160.327L98.8389 171.457C94.4649 172.915 92.1019 177.642 93.5589 182.016C94.7249 185.514 97.9819 187.726 101.477 187.726C102.352 187.726 103.242 187.587 104.118 187.295L137.509 176.165C141.883 174.707 144.246 169.98 142.789 165.606C141.331 161.233 136.602 158.869 132.23 160.327ZM132.23 207.075L98.8389 218.205C94.4649 219.663 92.1019 224.39 93.5589 228.764C94.7249 232.262 97.9819 234.474 101.477 234.474C102.352 234.474 103.242 234.335 104.118 234.043L137.509 222.913C141.883 221.455 144.246 216.728 142.789 212.354C141.331 207.98 136.602 205.616 132.23 207.075ZM132.23 253.823L98.8389 264.953C94.4649 266.411 92.1019 271.138 93.5589 275.512C94.7249 279.01 97.9819 281.222 101.477 281.222C102.352 281.222 103.242 281.083 104.118 280.791L137.509 269.661C141.883 268.203 144.246 263.476 142.789 259.102C141.331 254.728 136.602 252.366 132.23 253.823ZM132.23 300.571L98.8389 311.701C94.4649 313.159 92.1019 317.886 93.5589 322.26C94.7249 325.758 97.9819 327.97 101.477 327.97C102.352 327.97 103.242 327.831 104.118 327.539L137.509 316.409C141.883 314.951 144.246 310.224 142.789 305.85C141.331 301.477 136.602 299.113 132.23 300.571ZM132.23 347.319L98.8389 358.449C94.4649 359.907 92.1019 364.634 93.5589 369.008C94.7249 372.506 97.9819 374.718 101.477 374.718C102.352 374.718 103.242 374.579 104.118 374.287L137.509 363.157C141.883 361.699 144.246 356.972 142.789 352.598C141.331 348.225 136.602 345.859 132.23 347.319ZM132.23 394.066L98.8389 405.196C94.4649 406.654 92.1019 411.381 93.5589 415.755C94.7249 419.253 97.9819 421.465 101.477 421.465C102.352 421.465 103.242 421.326 104.118 421.034L137.509 409.904C141.883 408.446 144.246 403.719 142.789 399.345C141.331 394.971 136.602 392.609 132.23 394.066Z" fill="#CC9600"/>
<path d="M512 345.043V378.434C512 384.581 507.017 389.564 500.87 389.564H445.218V445.216H478.609C484.756 445.216 489.739 450.199 489.739 456.346V500.868H278.261V445.216V400.694C278.261 394.547 283.244 389.564 289.391 389.564H367.304V345.042C367.304 338.895 372.287 333.912 378.434 333.912H500.87C507.017 333.913 512 338.896 512 345.043Z" fill="#E7E8D4"/>
<path d="M512 345.043V378.434C512 384.581 507.017 389.564 500.87 389.564H445.218V445.216H278.261V400.694C278.261 394.547 283.244 389.564 289.391 389.564H367.304V345.042C367.304 338.895 372.287 333.912 378.434 333.912H500.87C507.017 333.913 512 338.896 512 345.043Z" fill="#D3D5BB"/>
<path d="M512 345.043V378.434C512 384.581 507.017 389.564 500.87 389.564H367.304V345.042C367.304 338.895 372.287 333.912 378.434 333.912H500.87C507.017 333.913 512 338.896 512 345.043Z" fill="#B9BAA6"/>
<path d="M512 22.261C512 34.556 502.034 44.522 489.739 44.522H386.563C388.461 47.799 389.565 51.593 389.565 55.652C389.565 67.947 379.599 77.913 367.304 77.913H200.348C188.053 77.913 178.087 67.947 178.087 55.652C178.087 43.357 188.053 33.391 200.348 33.391H325.785C323.887 30.114 322.783 26.32 322.783 22.261C322.783 9.966 332.749 0 345.043 0H489.739C502.034 0 512 9.966 512 22.261Z" fill="#C5EAD4"/>
<path d="M512 503.652C512 508.262 508.262 512 503.652 512H8.348C3.738 512 0 508.262 0 503.652C0 499.042 3.738 495.304 8.348 495.304H503.652C508.262 495.304 512 499.042 512 503.652Z" fill="#6B6A63"/>
</svg>
