<svg width="100%" height="100%" viewBox="0 0 512 512" fill="none" xmlns="http://www.w3.org/2000/svg">
<path d="M463.237 490H48.7621C21.8324 490 0 469.106 0 443.333V46.667C0 20.8944 21.8313 0 48.7621 0H463.238C490.168 0 512 20.8933 512 46.667V443.334C511.999 469.107 490.168 490 463.237 490Z" fill="#0C1445"/>
<path d="M345 73.2501C345 77.8061 339.162 81.5002 331.961 81.5002C315.187 81.5002 301.539 90.1368 301.539 100.75C301.539 105.306 295.7 109 288.5 109C281.3 109 275.461 105.306 275.461 100.75C275.461 90.1358 261.813 81.5002 245.039 81.5002C237.838 81.5002 232 77.8061 232 73.2501C232 68.6942 237.838 65 245.039 65C262.494 65 278.129 70.0363 288.5 77.9306C298.871 70.0363 314.506 65 331.961 65C339.162 65.001 345 68.6942 345 73.2501Z" fill="#727C7C"/>
<path d="M189 108.5C189 152.959 152.959 189 108.5 189C64.0405 189 28 152.958 28 108.5C28 64.042 64.0414 28 108.5 28C152.959 28 189 64.0412 189 108.5Z" fill="#FFE975"/>
<path d="M221.218 211.522C221.218 223.817 211.252 233.783 198.957 233.783H121.044C108.749 233.783 98.783 223.817 98.783 211.522H54.261C41.966 211.522 32 201.556 32 189.261C32.001 176.966 41.967 167 54.262 167H132.175C144.47 167 154.436 176.966 154.436 189.261H198.958C211.252 189.261 221.218 199.227 221.218 211.522Z" fill="#788485"/>
<path d="M512 411.826V489.739C512 502.034 502.034 512 489.739 512H22.261C9.966 512 0 502.034 0 489.739V411.826C0 399.531 9.966 389.565 22.261 389.565H489.739C502.034 389.565 512 399.531 512 411.826Z" fill="#727C7C"/>
<path d="M478.609 345.043V367.304H367.304V345.043L378.434 144.695V122.434H467.477V144.695L478.609 345.043Z" fill="#D3D5BB"/>
<path d="M434.087 345.043V367.304H367.304V345.043L378.434 144.695V122.434H422.956V144.695L434.087 345.043Z" fill="#DADACB"/>
<path d="M472.734 239.304H373.179L375.962 189.217H469.952L472.734 239.304ZM475.517 289.391H370.397L367.305 345.043V354.318H478.609V345.043L475.517 289.391Z" fill="#CB6C41"/>
<path d="M428.212 239.304H373.179L375.962 189.217H425.43L428.212 239.304ZM430.995 289.391H370.396L367.304 345.043V354.318H434.087V345.043L430.995 289.391Z" fill="#FF8D4D"/>
<path d="M467.478 55.652V144.695H378.435V55.652C385.562 48.525 395.228 44.522 405.306 44.522H440.607C450.686 44.522 460.351 48.525 467.478 55.652Z" fill="#EAD150"/>
<path d="M422.957 144.696H378.435V55.652H422.957V144.696Z" fill="#FFE975"/>
<path d="M501 354V390H345V354C345 349.029 349.989 345 356.142 345H489.856C496.01 344.999 501 349.029 501 354Z" fill="#D3D5BB"/>
<path d="M467.478 55.652H378.435L406.1 9.544C409.652 3.623 416.051 0 422.957 0C429.863 0 436.261 3.623 439.814 9.544L467.478 55.652ZM484.174 100.174H361.739C358.666 100.174 356.174 102.666 356.174 105.739V133.565C356.174 139.712 361.157 144.695 367.304 144.695H478.608C484.755 144.695 489.738 139.712 489.738 133.565V105.739C489.739 102.666 487.247 100.174 484.174 100.174Z" fill="#FF8D61"/>
</svg>
