<svg width="100%" height="100%" viewBox="0 0 300 300" fill="none" xmlns="http://www.w3.org/2000/svg">
<path d="M108.445 218.665H191.549C191.549 229.069 183.113 237.505 172.709 237.505H127.291C116.887 237.505 108.445 229.069 108.445 218.665Z" fill="#444457"/>
<path d="M300 218.665V241.256C300 249.615 293.223 256.393 284.863 256.393H15.1368C6.77736 256.393 0 249.615 0 241.256V218.665H11.1574H108.445C108.445 229.069 116.887 237.505 127.291 237.505H172.709C183.113 237.505 191.548 229.069 191.548 218.665H288.836H300Z" fill="#3B3A48"/>
<path d="M288.836 58.744V218.665H191.549H108.445H11.1575V58.744C11.1575 50.3845 17.9348 43.6072 26.2943 43.6072H273.699C282.058 43.6072 288.836 50.3845 288.836 58.744ZM266.203 194.07V67.3037H186.512H33.797V194.07H144.964H266.203Z" fill="#4B3D3D"/>
<path d="M266.203 67.3038V194.07H130.656L186.512 67.3038H266.203Z" fill="#8399E5"/>
<path d="M186.512 67.3038L130.656 194.07H33.7969V67.3038H186.512Z" fill="#91A9D6"/>
</svg>
