<svg width="100%" height="100%" viewBox="0 0 312 312" fill="none" xmlns="http://www.w3.org/2000/svg">
<rect x="6" y="6" width="100" height="100" rx="1.5" fill="#E5E5E5" stroke="black" stroke-width="10.5"/>
<rect x="206" y="6" width="100" height="100" rx="1.5" fill="#E5E5E5" stroke="black" stroke-width="10.5"/>
<rect x="106" y="6" width="100" height="100" rx="1.5" fill="#E5E5E5" stroke="black" stroke-width="10.5"/>
<rect x="6" y="106" width="100" height="100" rx="1.5" fill="#E5E5E5" stroke="black" stroke-width="10.5"/>
<rect x="206" y="106" width="100" height="100" rx="1.5" fill="#E5E5E5" stroke="black" stroke-width="10.5"/>
<rect x="106" y="106" width="100" height="100" rx="1.5" fill="#E5E5E5" stroke="black" stroke-width="10.5"/>
<rect x="6" y="206" width="100" height="100" rx="1.5" fill="#E5E5E5" stroke="black" stroke-width="10.5"/>
<rect x="206" y="206" width="100" height="100" rx="1.5" fill="#E5E5E5" stroke="black" stroke-width="10.5"/>
<rect x="106" y="206" width="100" height="100" rx="1.5" fill="#E5E5E5" stroke="black" stroke-width="10.5"/>
<path d="M262.574 260.539C259.926 263.141 256.832 264.442 253.293 264.442C248.77 264.442 245.148 262.895 242.43 259.801C239.711 256.684 238.352 252.488 238.352 247.215C238.352 243.863 239.078 240.793 240.531 238.004C242.008 235.192 244.059 233.012 246.684 231.465C249.309 229.895 252.262 229.109 255.543 229.109C258.918 229.109 261.918 229.953 264.543 231.641C267.168 233.328 269.207 235.754 270.66 238.918C272.113 242.082 272.852 245.703 272.875 249.781V253.543C272.875 262.074 270.754 268.777 266.512 273.652C262.27 278.527 256.258 281.129 248.477 281.457L245.981 281.492V273.02L248.231 272.984C257.066 272.586 261.848 268.438 262.574 260.539ZM255.789 256.672C257.43 256.672 258.836 256.25 260.008 255.406C261.203 254.563 262.106 253.543 262.715 252.348V248.164C262.715 244.719 262.059 242.047 260.746 240.149C259.434 238.25 257.676 237.301 255.473 237.301C253.434 237.301 251.758 238.238 250.445 240.113C249.133 241.965 248.477 244.297 248.477 247.109C248.477 249.899 249.109 252.195 250.375 254C251.664 255.781 253.469 256.672 255.789 256.672Z" fill="black"/>
<path d="M140.32 155.828L143.273 129.812H171.961V138.285H151.605L150.34 149.289C152.754 148 155.32 147.355 158.039 147.355C162.914 147.355 166.734 148.867 169.5 151.891C172.266 154.914 173.648 159.144 173.648 164.582C173.648 167.887 172.945 170.851 171.539 173.476C170.156 176.078 168.164 178.105 165.562 179.558C162.961 180.988 159.891 181.703 156.351 181.703C153.258 181.703 150.387 181.082 147.738 179.84C145.09 178.574 142.992 176.805 141.445 174.531C139.922 172.258 139.113 169.668 139.019 166.762H149.074C149.285 168.894 150.023 170.558 151.289 171.754C152.578 172.926 154.254 173.512 156.316 173.512C158.613 173.512 160.383 172.691 161.625 171.051C162.867 169.387 163.488 167.043 163.488 164.019C163.488 161.113 162.773 158.887 161.344 157.34C159.914 155.793 157.887 155.019 155.262 155.019C152.848 155.019 150.891 155.652 149.391 156.918L148.406 157.832L140.32 155.828Z" fill="black"/>
<path d="M63.4883 81H53.3281V41.8359L41.1992 45.5977V37.3359L62.3984 29.7422H63.4883V81Z" fill="black"/>
</svg>
