<svg width="100%" height="100%" viewBox="0 0 435 435" fill="none" xmlns="http://www.w3.org/2000/svg">
<g clip-path="url(#clip0)">
<path d="M156.97 316.51H277.26C277.26 331.57 265.05 343.78 249.99 343.78H184.25C169.19 343.78 156.97 331.57 156.97 316.51Z" fill="#66645D"/>
<path d="M434.24 316.51V349.21C434.24 361.31 424.43 371.12 412.33 371.12H21.91C9.81 371.12 0 361.31 0 349.21V316.51H16.15H156.97C156.97 331.57 169.19 343.78 184.25 343.78H249.99C265.05 343.78 277.26 331.57 277.26 316.51H418.08H434.24Z" fill="#434343"/>
<path d="M418.08 85.03V316.51H277.26H156.97H16.15V85.03C16.15 72.93 25.96 63.12 38.06 63.12H396.17C408.27 63.12 418.08 72.93 418.08 85.03ZM385.32 280.91V97.42H269.97H48.92V280.91H209.83H385.32Z" fill="#756969"/>
<path d="M385.32 97.42V280.91H189.12L269.97 97.42H385.32Z" fill="#8399E5"/>
<path d="M269.97 97.42L189.12 280.91H48.92V97.42H269.97Z" fill="#91A9D6"/>
</g>
<defs>
<clipPath id="clip0">
<rect width="434.24" height="434.24" fill="white"/>
</clipPath>
</defs>
</svg>
