<svg width="100%" height="100%" viewBox="0 0 100 100" fill="none" xmlns="http://www.w3.org/2000/svg">
<g clip-path="url(#clip0)">
<path d="M86.0892 80.7349C45.6094 99.9998 20.4872 83.8814 4.40565 74.0914C3.41053 73.4744 1.71918 74.2356 3.18666 75.9212C8.54422 82.4174 26.1021 98.075 49.0202 98.075C71.9541 98.075 85.5976 85.5612 87.3044 83.3782C88.9996 81.2138 87.8021 80.0198 86.0889 80.7349H86.0892ZM97.4579 74.4564C96.3708 73.0409 90.8479 72.777 87.3721 73.204C83.8909 73.6186 78.6657 75.7462 79.1199 77.0236C79.353 77.5022 79.8289 77.2875 82.2203 77.0725C84.6183 76.8332 91.336 75.9854 92.7358 77.8153C94.1421 79.6578 90.5932 88.435 89.9451 89.8506C89.3188 91.2661 90.1843 91.6311 91.3606 90.6883C92.5208 89.7459 94.621 87.3052 96.0304 83.8514C97.4302 80.3787 98.2838 75.5342 97.4575 74.4564H97.4579Z" fill="#FF9900"/>
<path fill-rule="evenodd" clip-rule="evenodd" d="M58.8614 41.4249C58.8614 46.4798 58.9891 50.6953 56.4342 55.1843C54.372 58.8343 51.1054 61.0788 47.4558 61.0788C42.4736 61.0788 39.5721 57.283 39.5721 51.6808C39.5721 40.6218 49.481 38.6146 58.8614 38.6146V41.4249ZM71.9456 73.0502C71.0878 73.8165 69.8469 73.8715 68.8799 73.3603C64.5732 69.7837 63.8066 68.1231 61.4344 64.7104C54.3174 71.9736 49.2806 74.145 40.0468 74.145C29.134 74.145 20.6299 67.4111 20.6299 53.9253C20.6299 43.3959 26.3421 36.2239 34.4623 32.7204C41.5066 29.6178 51.3428 29.0704 58.8614 28.213V26.5339C58.8614 23.4497 59.0983 19.8001 57.2919 17.1359C55.7041 14.7452 52.6749 13.7597 50.0103 13.7597C45.0651 13.7597 40.6488 16.2962 39.5721 21.5518C39.3529 22.72 38.4955 23.8698 37.3276 23.9244L24.7358 22.5742C23.6776 22.3365 22.5097 21.4791 22.8017 19.8547C25.7032 4.59901 39.4806 0 51.8167 0C58.1309 0 66.3792 1.67905 71.3613 6.46039C77.6755 12.3546 77.0732 20.2197 77.0732 28.7784V48.9981C77.0732 55.075 79.5915 57.7392 81.9637 61.0242C82.8031 62.192 82.9858 63.5976 81.9272 64.4731C79.2811 66.681 74.5729 70.7873 71.9818 73.0868L71.9452 73.0502" fill="black"/>
<path d="M86.0892 80.7349C45.6094 99.9998 20.4872 83.8814 4.40565 74.0914C3.41053 73.4744 1.71918 74.2356 3.18666 75.9212C8.54422 82.4174 26.1021 98.075 49.0202 98.075C71.9541 98.075 85.5976 85.5612 87.3044 83.3782C88.9996 81.2138 87.8021 80.0198 86.0889 80.7349H86.0892ZM97.4579 74.4564C96.3708 73.0409 90.8479 72.777 87.3721 73.204C83.8909 73.6186 78.6657 75.7462 79.1199 77.0236C79.353 77.5022 79.8289 77.2875 82.2203 77.0725C84.6183 76.8332 91.336 75.9854 92.7358 77.8153C94.1421 79.6578 90.5932 88.435 89.9451 89.8506C89.3188 91.2661 90.1843 91.6311 91.3606 90.6883C92.5208 89.7459 94.621 87.3052 96.0304 83.8514C97.4302 80.3787 98.2838 75.5342 97.4575 74.4564H97.4579Z" fill="#FF9900"/>
<path fill-rule="evenodd" clip-rule="evenodd" d="M58.8614 41.4249C58.8614 46.4798 58.9891 50.6953 56.4342 55.1843C54.372 58.8343 51.1054 61.0788 47.4558 61.0788C42.4736 61.0788 39.5721 57.283 39.5721 51.6808C39.5721 40.6218 49.481 38.6146 58.8614 38.6146V41.4249ZM71.9456 73.0502C71.0878 73.8165 69.8469 73.8715 68.8799 73.3603C64.5732 69.7837 63.8066 68.1231 61.4344 64.7104C54.3174 71.9736 49.2806 74.145 40.0468 74.145C29.134 74.145 20.6299 67.4111 20.6299 53.9253C20.6299 43.3959 26.3421 36.2239 34.4623 32.7204C41.5066 29.6178 51.3428 29.0704 58.8614 28.213V26.5339C58.8614 23.4497 59.0983 19.8001 57.2919 17.1359C55.7041 14.7452 52.6749 13.7597 50.0103 13.7597C45.0651 13.7597 40.6488 16.2962 39.5721 21.5518C39.3529 22.72 38.4955 23.8698 37.3276 23.9244L24.7358 22.5742C23.6776 22.3365 22.5097 21.4791 22.8017 19.8547C25.7032 4.59901 39.4806 0 51.8167 0C58.1309 0 66.3792 1.67905 71.3613 6.46039C77.6755 12.3546 77.0732 20.2197 77.0732 28.7784V48.9981C77.0732 55.075 79.5915 57.7392 81.9637 61.0242C82.8031 62.192 82.9858 63.5976 81.9272 64.4731C79.2811 66.681 74.5729 70.7873 71.9818 73.0868L71.9452 73.0502" fill="black"/>
</g>
<defs>
<clipPath id="clip0">
<rect width="100" height="100" fill="white"/>
</clipPath>
</defs>
</svg>
