<svg width="100%" height="100%" viewBox="0 0 300 300" fill="none" xmlns="http://www.w3.org/2000/svg">
<g clip-path="url(#clip0)">
<path d="M146.489 296.489C227.393 296.489 292.979 230.904 292.979 150C292.979 69.0962 227.393 3.51074 146.489 3.51074C65.5855 3.51074 0 69.0962 0 150C0 230.904 65.5855 296.489 146.489 296.489Z" fill="#ECF0F1"/>
<path d="M146.489 23.7162C216.122 23.7162 272.773 80.3671 272.773 150C272.773 219.633 216.122 276.284 146.489 276.284C76.8564 276.284 20.2054 219.633 20.2054 150C20.2054 80.3671 76.8564 23.7162 146.489 23.7162ZM146.489 3.51074C65.5868 3.51074 0 69.0975 0 150C0 230.903 65.5868 296.489 146.489 296.489C227.392 296.489 292.979 230.903 292.979 150C292.979 69.0975 227.392 3.51074 146.489 3.51074Z" fill="#545E73"/>
<path d="M146.489 33.2026C143.701 33.2026 141.438 35.4605 141.438 38.2539V43.3053C141.438 46.0987 143.701 48.3566 146.489 48.3566C149.278 48.3566 151.541 46.0987 151.541 43.3053V38.2539C151.541 35.4656 149.278 33.2026 146.489 33.2026Z" fill="#8697CB"/>
<path d="M146.489 250.411C143.701 250.411 141.438 252.669 141.438 255.462V260.514C141.438 263.307 143.701 265.565 146.489 265.565C149.278 265.565 151.541 263.307 151.541 260.514V255.462C151.541 252.674 149.278 250.411 146.489 250.411Z" fill="#8697CB"/>
<path d="M257.619 144.332H252.568C249.779 144.332 247.516 146.59 247.516 149.384C247.516 152.177 249.779 154.435 252.568 154.435H257.619C260.407 154.435 262.67 152.177 262.67 149.384C262.67 146.59 260.407 144.332 257.619 144.332Z" fill="#8697CB"/>
<path d="M40.4108 144.332H35.3595C32.5711 144.332 30.3081 146.59 30.3081 149.384C30.3081 152.177 32.5711 154.435 35.3595 154.435H40.4108C43.1992 154.435 45.4622 152.177 45.4622 149.384C45.4622 146.59 43.1992 144.332 40.4108 144.332Z" fill="#8697CB"/>
<path d="M221.497 67.2334L217.926 70.8048C215.951 72.7798 215.951 75.9723 217.926 77.9474C218.911 78.9324 220.204 79.4274 221.497 79.4274C222.79 79.4274 224.083 78.9324 225.068 77.9474L228.64 74.3761C230.615 72.401 230.615 69.2085 228.64 67.2334C226.665 65.2584 223.472 65.2584 221.497 67.2334Z" fill="#8697CB"/>
<path d="M67.9105 220.825L64.3391 224.396C62.3641 226.371 62.3641 229.564 64.3391 231.539C65.3242 232.524 66.6173 233.019 67.9105 233.019C69.2036 233.019 70.4967 232.524 71.4818 231.539L75.0531 227.968C77.0281 225.992 77.0281 222.8 75.0531 220.825C73.078 218.85 69.8805 218.85 67.9105 220.825Z" fill="#8697CB"/>
<path d="M225.068 220.825C223.093 218.85 219.901 218.85 217.926 220.825C215.951 222.8 215.951 225.992 217.926 227.968L221.497 231.539C222.482 232.524 223.775 233.019 225.068 233.019C226.361 233.019 227.655 232.524 228.64 231.539C230.615 229.564 230.615 226.371 228.64 224.396L225.068 220.825Z" fill="#8697CB"/>
<path d="M71.4818 67.2334C69.5067 65.2584 66.3142 65.2584 64.3391 67.2334C62.3641 69.2085 62.3641 72.401 64.3391 74.3761L67.9105 77.9474C68.8955 78.9324 70.1886 79.4274 71.4818 79.4274C72.7749 79.4274 74.0681 78.9324 75.0531 77.9474C77.0281 75.9723 77.0281 72.7798 75.0531 70.8048L71.4818 67.2334Z" fill="#8697CB"/>
<path d="M131.335 154.44H90.9244C88.1361 154.44 85.873 152.182 85.873 149.389C85.873 146.596 88.1361 144.338 90.9244 144.338H131.335C134.124 144.338 136.387 146.596 136.387 149.389C136.387 152.182 134.124 154.44 131.335 154.44Z" fill="#545E73"/>
<path d="M146.489 139.286C143.701 139.286 141.438 137.028 141.438 134.235V78.6699C141.438 75.8765 143.701 73.6186 146.489 73.6186C149.278 73.6186 151.541 75.8765 151.541 78.6699V134.235C151.541 137.023 149.278 139.286 146.489 139.286Z" fill="#545E73"/>
<path d="M146.489 169.594C135.346 169.594 126.284 160.532 126.284 149.389C126.284 138.246 135.346 129.184 146.489 129.184C157.633 129.184 166.695 138.246 166.695 149.389C166.695 160.532 157.633 169.594 146.489 169.594ZM146.489 139.286C140.918 139.286 136.387 143.817 136.387 149.389C136.387 154.961 140.918 159.492 146.489 159.492C152.061 159.492 156.592 154.961 156.592 149.389C156.592 143.817 152.061 139.286 146.489 139.286Z" fill="#545E73"/>
<path d="M239.384 296.489C272.861 296.489 300 269.351 300 235.873C300 202.396 272.861 175.257 239.384 175.257C205.906 175.257 178.768 202.396 178.768 235.873C178.768 269.351 205.906 296.489 239.384 296.489Z" fill="#26B999"/>
<path d="M272.576 206.469C270.278 204.873 267.136 205.439 265.545 207.732L237.277 248.345L217.329 231.968C215.178 230.195 211.99 230.514 210.222 232.671C208.449 234.828 208.762 238.01 210.924 239.778L235.1 259.625C236.009 260.367 237.141 260.771 238.303 260.771C238.53 260.771 238.762 260.756 238.995 260.726C240.389 260.529 241.642 259.766 242.45 258.609L273.839 213.506C275.43 211.212 274.864 208.06 272.576 206.469Z" fill="white"/>
</g>
<defs>
<clipPath id="clip0">
<rect width="300" height="300" fill="white"/>
</clipPath>
</defs>
</svg>
