<svg width="100%" height="100%" viewBox="0 0 300 71" fill="none" xmlns="http://www.w3.org/2000/svg">
<path fill-rule="evenodd" clip-rule="evenodd" d="M1.48345 32.2704C-1.05298 23.2631 0.432009 14.954 0.432009 4.89706C9.43924 0.349917 18.3611 0 28.0665 0C36.3756 0 48.2675 1.04974 55.4398 4.89706C56.1396 14.343 56.5766 22.7374 54.1272 33.5813C51.6778 44.3381 44.5942 59.2938 28.4164 70.3117C10.7518 58.681 4.97915 44.6897 1.48345 32.2704V32.2704Z" fill="#CF4037"/>
<path fill-rule="evenodd" clip-rule="evenodd" d="M9.9022 19.0646L1.24487 28.5959C3.16853 37.6901 8.59131 56.669 28.3553 69.5253C47.9453 56.0562 53.1922 37.6048 54.329 28.3347L45.9328 19.0646L36.4886 28.5959L27.9184 19.1517L19.261 28.5088L9.9022 19.0646V19.0646ZM50.9186 9.53164C50.8299 9.53164 50.6558 9.4446 50.9186 9.35584C51.0927 9.35584 51.5297 9.35584 52.0554 9.96861C52.2312 9.88156 52.7553 9.09469 53.2793 9.35584C53.2793 9.35584 51.5314 13.2049 51.3556 13.466C50.6558 13.1161 46.1957 12.855 46.6327 12.855C46.9826 12.855 42.6095 12.942 41.9097 13.466C41.7339 13.1161 39.986 9.26878 39.986 9.26878C40.5118 9.00592 41.1228 9.79451 41.2986 9.87985C41.7356 9.26879 42.1726 9.26878 42.2596 9.26878C42.6966 9.35584 42.4354 9.44459 42.3467 9.52994C40.2489 11.1924 43.3076 13.2032 44.0092 11.1924C46.8085 11.5424 46.0199 9.35584 45.3218 9.00593C44.796 8.91887 45.146 8.83012 45.3218 8.83012C45.5829 8.65431 45.9328 8.6543 45.9328 8.91716C45.9328 7.69333 46.0199 6.90475 46.6327 6.55655C47.3325 6.99351 47.4195 7.69333 47.3325 8.91716C47.4195 8.6543 47.6824 8.83012 47.9453 8.83012C48.0323 8.91717 48.4693 8.91717 48.0323 9.09298C47.3325 9.35413 46.6344 11.7165 49.3449 11.1907C49.956 13.2049 53.2793 11.0183 50.9186 9.53164V9.53164ZM49.082 11.8052L49.956 12.7662L48.3822 12.5033L49.082 11.8052ZM46.6327 10.7555L47.5936 12.5033H45.67L46.6327 10.7555ZM44.1833 11.8052L43.3964 12.7662L44.9701 12.5033L44.1833 11.8052Z" fill="white"/>
<path fill-rule="evenodd" clip-rule="evenodd" d="M43.038 15.6562C42.7751 15.1304 42.4269 14.1694 42.2511 13.9936C42.9509 13.3809 45.7485 13.2938 46.7999 13.2938C48.2866 13.2938 50.3861 13.5567 51.0842 13.9936C51.0842 13.9936 50.7343 15.0434 50.4715 15.7432C49.2476 15.3062 47.6739 15.1304 46.6241 15.1304C45.4003 15.1304 44.0007 15.3062 43.038 15.6562V15.6562ZM50.0345 14.1695C50.2974 14.1695 50.5602 14.4306 50.5602 14.6064C50.551 14.7428 50.4927 14.8713 50.396 14.9679C50.2993 15.0646 50.1709 15.1229 50.0345 15.1321C49.8587 15.1321 49.5975 14.8693 49.5975 14.6064C49.5975 14.4306 49.8604 14.1695 50.0345 14.1695ZM48.372 13.8178C48.6348 13.8178 48.8977 14.079 48.8977 14.2548C48.8977 14.5177 48.6348 14.7788 48.372 14.7788C48.1979 14.7788 47.935 14.5177 47.935 14.2548C47.9367 14.0807 48.1979 13.8178 48.372 13.8178ZM46.7112 13.6437C46.9723 13.6437 47.2352 13.9066 47.2352 14.1695C47.2352 14.4306 46.9723 14.6952 46.7112 14.6952C46.5748 14.686 46.4463 14.6276 46.3497 14.531C46.253 14.4343 46.1947 14.3059 46.1855 14.1695C46.1872 13.9066 46.45 13.6437 46.7112 13.6437ZM44.9616 13.8178C45.2245 13.8178 45.4874 14.079 45.4874 14.2548C45.4874 14.5177 45.2245 14.7788 44.9616 14.7788C44.7005 14.7788 44.4359 14.5177 44.4359 14.2548C44.4376 14.0807 44.7005 13.8178 44.9616 13.8178ZM43.3879 14.1695C43.6507 14.1695 43.9136 14.4306 43.9136 14.6064C43.9136 14.8693 43.6507 15.1321 43.3879 15.1321C43.125 15.1321 42.8639 14.8693 42.8639 14.6064C42.8639 14.4306 43.125 14.1695 43.3879 14.1695Z" fill="white"/>
<path fill-rule="evenodd" clip-rule="evenodd" d="M46.639 15.4822C48.5627 15.4822 50.3993 15.8321 50.3993 16.0933C50.3993 16.2691 48.8255 16.4432 46.8131 16.4432C44.8007 16.4432 43.1399 16.2674 43.1399 16.0933C43.1399 15.8321 44.7153 15.4822 46.639 15.4822ZM21.8892 3.8515C21.8892 3.8515 23.2018 4.3755 24.2515 3.93854C25.6494 3.41282 26.875 3.06462 27.8377 3.50158V14.8711C27.0508 14.5212 26.0011 14.697 24.7772 14.9582C23.5534 15.2211 22.8536 15.3081 21.8909 15.134V3.8515H21.8892ZM25.5624 12.2477C25.5624 11.8107 25.8235 11.7219 25.9993 11.7219C26.1752 11.7219 26.4363 11.809 26.4363 12.2477C26.4363 12.6846 26.1752 12.7717 25.9993 12.7717C25.8235 12.7717 25.5624 12.6829 25.5624 12.2477ZM25.3012 12.2477C25.3012 12.9475 25.8252 13.0345 26.0011 13.0345C26.1769 13.0345 26.7009 12.9475 26.7009 12.2477C26.7009 11.5478 26.1752 11.4608 26.0011 11.4608C25.8269 11.4608 25.3012 11.5461 25.3012 12.2477ZM24.6885 12.5959L24.0774 11.5461H23.7275V13.0328H24.0774V11.9831L24.6014 13.0328H24.9513V11.5461H24.6885V12.5959V12.5959ZM23.1147 13.2086H23.3759V11.6332H23.1147V13.2086ZM26.962 8.13577H26.5251L26.2622 9.35961L25.9993 8.13577H25.4736V9.70953H25.8235V8.39863L26.0864 9.71123H26.4363L26.6992 8.39863V9.71123H26.9603V8.13577H26.962V8.13577ZM24.1627 9.0114C24.1627 8.66149 24.3385 8.48739 24.5126 8.48739C24.6885 8.48739 24.9496 8.66149 24.9496 9.0114C24.9496 9.44836 24.6867 9.62247 24.5126 9.62247C24.3385 9.62247 24.1627 9.44836 24.1627 9.0114ZM23.8145 9.0114C23.8145 9.79828 24.3403 9.88533 24.5144 9.88533C24.7772 9.88533 25.3012 9.79828 25.3012 9.0114C25.3012 8.31158 24.7755 8.22453 24.5144 8.22453C24.3385 8.22282 23.8145 8.31158 23.8145 9.0114ZM22.676 8.74854H22.9389C23.1147 8.74854 23.2888 8.74855 23.2888 9.18551C23.2888 9.44837 23.2001 9.71123 22.9389 9.71123H22.676V8.74854V8.74854ZM22.3261 9.97238H23.0259C23.5517 9.97238 23.6387 9.44837 23.6387 9.18551C23.6387 8.92436 23.5517 8.48739 23.0259 8.48739H22.3261V9.97238V9.97238ZM25.2125 6.29917L24.5997 5.24944H24.2498V6.73612H24.5997V5.68639L25.2125 6.73612H25.4736V5.24944H25.2125V6.29917V6.29917ZM23.5517 6.82489H23.8145V5.33818H23.5517V6.82489ZM21.4522 3.8515L20.4025 4.72541V16.0933L21.4522 15.0452V3.8515Z" fill="white"/>
<path fill-rule="evenodd" clip-rule="evenodd" d="M20.724 16.2666L21.7737 15.3926C22.5606 15.6555 24.2231 15.3056 25.01 15.2168C26.2338 14.954 26.8466 14.7799 27.7205 15.2168C27.4938 15.2837 27.2948 15.422 27.153 15.6112C27.0112 15.8003 26.9343 16.0302 26.9336 16.2666H20.724ZM35.154 16.2666L34.1043 15.3926C33.2303 15.6555 31.7437 15.3056 30.868 15.2168C29.4701 14.954 29.0314 14.7799 28.2445 15.2168C28.6815 15.3926 28.9444 15.8279 28.8556 16.2666H35.154V16.2666ZM34.3671 3.76022L35.4152 4.7229V15.9167L34.3671 14.954V3.76022V3.76022Z" fill="white"/>
<path fill-rule="evenodd" clip-rule="evenodd" d="M34.0122 3.8515C34.0122 3.8515 32.6996 4.3755 31.5628 3.93854C30.1632 3.41282 29.0264 3.06462 28.2395 3.50158V14.8711C28.9394 14.5212 29.8133 14.697 31.1259 14.9582C32.3497 15.221 33.0495 15.3081 34.0122 15.134V3.8515ZM29.4651 13.0345H30.0761C30.6002 13.0345 30.6872 12.5088 30.6872 12.1589C30.6872 11.8977 30.6002 11.4591 30.0761 11.4591H29.4651V13.0345ZM29.7262 11.7219H30.0761C30.1632 11.7219 30.426 11.809 30.426 12.2477C30.426 12.5088 30.3373 12.7717 30.0761 12.7717H29.7262V11.7219V11.7219ZM31.1259 12.4218C31.1259 13.2086 31.6499 13.2957 31.8257 13.2957C32.0886 13.2957 32.6126 13.2086 32.6126 12.4218C32.6126 11.7219 32.0868 11.6349 31.8257 11.6349C31.6499 11.6332 31.1259 11.7219 31.1259 12.4218ZM31.4758 12.4218C31.4758 12.0718 31.6499 11.8977 31.8257 11.8977C32.0015 11.8977 32.2627 12.0718 32.2627 12.4218C32.2627 12.8587 31.9998 13.0345 31.8257 13.0345C31.6516 13.0345 31.4758 12.8587 31.4758 12.4218ZM30.2519 9.35961H30.9518V9.09846H30.2519V8.74854H31.0388V8.48739H29.9891V9.97409H30.2519V9.35961V9.35961ZM31.3887 10.0594H31.7386V8.48568H31.3887V10.0594ZM29.9891 5.77515C29.9891 5.60105 29.8133 5.25114 29.3763 5.25114C28.9394 5.25114 28.6765 5.514 28.6765 6.03801C28.6765 6.56203 28.9394 6.82488 29.3763 6.82488C29.7262 6.82488 29.9891 6.64908 29.9891 6.29917H29.7262C29.6392 6.47498 29.5504 6.56203 29.3763 6.56203C29.0264 6.56203 29.0264 6.38622 29.0264 6.03801C29.0264 5.60105 29.2005 5.51229 29.3763 5.51229C29.6392 5.51229 29.6392 5.6881 29.7262 5.77345H29.9891V5.77515V5.77515ZM30.2519 6.21211C30.2519 6.99898 30.7777 7.08604 31.0388 7.08604C31.2146 7.08604 31.7386 6.99898 31.7386 6.21211C31.7386 5.51229 31.2129 5.42524 31.0388 5.42524C30.7777 5.42524 30.2519 5.51229 30.2519 6.21211ZM30.6019 6.21211C30.6019 5.8622 30.8647 5.6881 31.0388 5.6881C31.1259 5.6881 31.3887 5.86391 31.3887 6.21211C31.3887 6.64907 31.1259 6.82488 31.0388 6.82488C30.863 6.82488 30.6019 6.64907 30.6019 6.21211ZM32.8754 6.56203L32.3497 5.51229H31.9998V6.99898H32.2627V5.94925L32.8754 6.99898H33.2253V5.51229H32.8754V6.56203V6.56203ZM27.9784 15.3952C27.5414 15.8321 27.3656 15.8321 27.4527 16.2691H28.4136C28.5024 15.8321 28.4153 15.658 27.9784 15.3952Z" fill="white"/>
<path fill-rule="evenodd" clip-rule="evenodd" d="M8.75056 36.47C8.83932 36.2072 9.18923 35.2462 9.36333 34.9833C9.18752 34.7205 8.83761 34.3722 8.66351 34.3722C8.75056 34.1094 9.27457 33.7595 9.18923 33.4966C9.01342 33.2337 8.83932 33.2338 8.3136 32.9726C8.48941 32.6227 8.83932 32.4469 9.10047 32.3615C9.45038 32.2728 9.45038 31.9246 9.88735 31.6617C10.4131 31.3989 10.9371 31.3988 11.5481 31.3118C12.335 31.3988 14.5215 32.0116 13.9105 34.7222C15.2231 37.3456 19.8573 33.8482 21.5198 33.8482C21.1699 34.374 20.8199 34.985 20.47 35.5978C20.907 35.8572 21.5198 35.5978 21.9567 35.5978C21.5198 37.0845 20.6441 37.6085 19.859 38.2213C20.6458 40.5819 23.3564 39.708 25.8058 39.4451C25.5446 40.232 24.4932 40.319 24.0579 40.9318C25.0086 41.8804 25.8051 42.9717 26.4185 44.1663C25.2817 43.4699 23.0082 42.6831 22.2213 42.4202C20.8234 41.8074 17.7612 41.8074 16.3616 42.4202C16.6244 42.9442 17.1484 43.2941 17.6742 43.557C16.8873 45.0437 15.4006 44.1663 14.525 43.9069C13.7381 44.4309 12.3384 44.5163 11.9885 44.1663C11.9885 44.1663 11.9885 43.7294 12.4255 43.4699C12.7754 43.033 11.5499 42.9425 11.2887 42.4202C11.2887 41.8074 11.8144 42.4202 12.1643 41.8074C11.374 40.3173 8.3136 39.9674 8.75056 36.47V36.47ZM10.8483 32.2728C11.0241 32.2728 11.1112 32.3615 11.1112 32.5356C11.1112 32.7114 11.0241 32.7985 10.8483 32.7985C10.6742 32.7985 10.5855 32.7114 10.5855 32.5356C10.5872 32.3615 10.6742 32.2728 10.8483 32.2728ZM29.8272 36.907C29.9142 36.6441 30.1771 35.6831 30.3512 35.4203C30.1771 35.1591 29.9142 34.8109 29.6514 34.8109C29.8272 34.5481 30.2641 34.1981 30.1771 33.9353C30.09 33.6724 29.9142 33.6724 29.3902 33.4113C29.566 33.0613 29.9159 32.8856 30.1771 32.7985C30.527 32.7985 30.527 32.3615 30.964 32.0987C31.4897 31.8375 32.0137 31.8375 32.6265 31.8375C33.4133 31.8375 35.5999 32.4486 34.9871 35.1608C36.2997 37.786 40.9339 34.1999 42.5964 34.1999L41.5467 36.0365C41.9836 36.2993 42.5964 36.0365 43.0333 36.0365C42.5964 37.5232 41.6354 38.1342 40.9356 38.6599C41.6354 41.0206 44.433 40.1466 46.8807 39.8838C46.6195 40.6707 45.5681 40.7577 45.1328 41.3705C45.9197 42.2444 46.8807 43.3812 47.4934 44.6067C46.3567 43.9069 44.0814 43.12 43.2962 42.8572C41.8983 42.2444 38.8361 42.2444 37.3494 42.8572C37.6993 43.3812 38.2233 43.7311 38.7491 43.994C37.9622 45.4807 36.4755 44.6067 35.5999 44.3439C34.813 44.8679 33.4133 44.9566 33.0634 44.6067C33.0634 44.6067 33.0634 44.2568 33.5004 43.9069C33.8503 43.4699 32.6265 43.3795 32.2766 42.8572C32.2766 42.2444 32.8893 42.8572 33.2392 42.2444C32.4507 40.7543 29.3885 40.4044 29.8272 36.907V36.907ZM31.8379 32.7097C32.0137 32.7097 32.1878 32.7968 32.1878 32.9726C32.1878 33.1484 32.012 33.2338 31.8379 33.2338C31.7508 33.2338 31.5767 33.1467 31.5767 32.9726C31.5767 32.7985 31.7508 32.7097 31.8379 32.7097ZM19.6815 51.7756C19.8573 51.4257 20.1184 50.5484 20.2942 50.2889C20.1184 50.0261 19.8573 49.6762 19.5944 49.6762C19.6815 49.4133 20.2055 48.9764 20.1201 48.7169C20.0331 48.5394 19.7702 48.5394 19.3332 48.2765C19.5074 47.93 19.8573 47.6672 20.1201 47.6672C20.383 47.5801 20.383 47.2302 20.8199 46.9673C21.344 46.7045 21.9567 46.7045 22.4807 46.6174C23.2676 46.7045 25.5412 47.3173 24.9301 50.0278C26.2427 52.6513 30.8769 49.0651 32.4507 49.0651C32.1878 49.6779 31.7508 50.2924 31.4897 50.9017C31.8396 51.1646 32.4507 50.9017 32.9764 50.9017C32.4507 52.3014 31.5767 52.9158 30.8769 53.5252C31.5767 55.8892 34.3743 55.0119 36.8237 54.7525C36.4738 55.5393 35.5128 55.6264 34.9871 56.2391C35.861 57.1131 36.8237 58.2499 37.3477 59.4737C36.298 58.6868 34.0244 57.987 33.2375 57.6371C31.7508 57.1131 28.7774 57.1131 27.2907 57.6371C27.5536 58.2499 28.1647 58.5998 28.6033 58.8643C27.9035 60.351 26.4168 59.4737 25.5429 59.1238C24.756 59.7366 23.3564 59.8236 23.0065 59.4737C23.0065 59.4737 23.0065 59.0367 23.4434 58.7739C23.7063 58.3369 22.5695 58.2499 22.2196 57.6371C22.2196 57.1131 22.8324 57.6371 23.0952 57.1131C22.3937 55.623 19.3332 55.2731 19.6815 51.7756V51.7756ZM21.7809 47.4897C21.955 47.4897 22.0421 47.6672 22.0421 47.8396C22.0421 47.93 21.955 48.1024 21.7809 48.1024C21.6922 48.1024 21.5181 47.9283 21.5181 47.8396C21.5181 47.6655 21.6939 47.4897 21.7809 47.4897Z" fill="#CF4037"/>
<path fill-rule="evenodd" clip-rule="evenodd" d="M13.9046 9.53164C13.8176 9.53164 13.6418 9.4446 13.9046 9.35584C14.0805 9.35584 14.5157 9.35584 15.0414 9.96861C15.2172 9.88156 15.7413 9.09468 16.2653 9.35584C16.2653 9.35584 14.5157 13.2049 14.3416 13.466C13.6418 13.1161 9.1834 12.855 9.61866 12.855C9.96857 12.855 5.59724 12.942 4.89571 13.466C4.7199 13.1161 2.97205 9.26878 2.97205 9.26878C3.49606 9.00592 4.10883 9.79451 4.28293 9.87985C4.7199 9.26879 5.15857 9.26878 5.24562 9.26878C5.68258 9.35583 5.42143 9.44459 5.33267 9.52994C3.23491 11.1924 6.29535 13.2031 6.99518 11.1924C9.79447 11.5423 9.00759 9.35583 8.30777 9.00592C7.78205 8.91887 8.13196 8.83012 8.30777 8.83012C8.57063 8.65431 8.92054 8.6543 8.92054 8.91716C8.92054 7.69333 9.00759 6.90475 9.62036 6.55655C10.3202 6.99351 10.4072 7.69333 10.3202 8.91716C10.4072 8.6543 10.6701 8.83012 10.9313 8.83012C11.0183 8.91717 11.457 8.91717 11.0183 9.09298C10.3185 9.35413 9.61866 11.7165 12.3309 11.1907C12.942 13.2049 16.2653 11.0183 13.9046 9.53164V9.53164ZM12.068 11.8052L12.942 12.7662L11.3682 12.5033L12.068 11.8052ZM9.61866 10.7555L10.5796 12.5033H8.65597L9.61866 10.7555ZM7.17098 11.8052L6.38411 12.7662L7.95786 12.5033L7.17098 11.8052Z" fill="white"/>
<path fill-rule="evenodd" clip-rule="evenodd" d="M6.13516 15.6562C5.78524 15.1304 5.43533 14.1694 5.26123 13.9936C5.96105 13.3809 8.75864 13.2938 9.80837 13.2938C11.2951 13.2938 13.3945 13.5567 14.0944 13.9936C14.0944 13.9936 13.7444 15.0434 13.4816 15.7432C12.3448 15.3062 10.684 15.1304 9.63427 15.1304C8.40873 15.1304 7.00908 15.3062 6.13516 15.6562V15.6562ZM13.0429 14.1695C13.3058 14.1695 13.5686 14.4306 13.5686 14.6064C13.5594 14.7428 13.5011 14.8713 13.4044 14.9679C13.3078 15.0646 13.1793 15.1229 13.0429 15.1321C12.8688 15.1321 12.606 14.8693 12.606 14.6064C12.606 14.4306 12.8688 14.1695 13.0429 14.1695ZM11.3821 13.8178C11.645 13.8178 11.9061 14.079 11.9061 14.2548C11.8969 14.3908 11.8388 14.5188 11.7424 14.6151C11.6461 14.7115 11.5181 14.7696 11.3821 14.7788C11.2063 14.7788 10.9452 14.5177 10.9452 14.2548C10.9452 14.0807 11.208 13.8178 11.3821 13.8178ZM9.71961 13.6437C9.98247 13.6437 10.2436 13.9066 10.2436 14.1695C10.2436 14.4306 9.98247 14.6952 9.71961 14.6952C9.45675 14.6952 9.1956 14.4323 9.1956 14.1695C9.1956 13.9066 9.45846 13.6437 9.71961 13.6437ZM7.97176 13.8178C8.23462 13.8178 8.49748 14.079 8.49748 14.2548C8.49748 14.5177 8.23462 14.7788 7.97176 14.7788C7.83581 14.7696 7.7078 14.7115 7.61145 14.6151C7.51509 14.5188 7.45694 14.3908 7.44775 14.2548C7.44604 14.0807 7.7089 13.8178 7.97176 13.8178ZM6.39801 14.1695C6.66088 14.1695 6.92374 14.4306 6.92374 14.6064C6.92374 14.8693 6.66088 15.1321 6.39801 15.1321C6.13515 15.1321 5.87229 14.8693 5.87229 14.6064C5.87229 14.4306 6.13515 14.1695 6.39801 14.1695Z" fill="white"/>
<path fill-rule="evenodd" clip-rule="evenodd" d="M9.64389 15.4827C11.5675 15.4827 13.4042 15.8326 13.4042 16.0938C13.4042 16.2696 11.8304 16.4437 9.81799 16.4437C7.80558 16.4437 6.14478 16.2679 6.14478 16.0938C6.14648 15.8326 7.72023 15.4827 9.64389 15.4827Z" fill="white"/>
<path fill-rule="evenodd" clip-rule="evenodd" d="M244.796 6.559C245.932 6.56081 247.02 7.01276 247.823 7.81583C248.626 8.6189 249.078 9.70758 249.08 10.8433C249.08 13.2056 247.157 15.2163 244.796 15.2163C242.432 15.2163 240.508 13.2056 240.508 10.8433C240.511 9.70713 240.963 8.61819 241.767 7.81512C242.571 7.01206 243.66 6.56035 244.796 6.559ZM285.461 52.1226C285.283 54.0462 284.411 55.2701 280.914 56.2328C278.113 57.1067 278.463 58.5934 281.264 58.7658C288.871 57.629 291.232 57.8065 298.053 58.5917C300.766 58.5046 300.326 56.8421 298.665 56.0553C294.642 54.4815 294.031 54.4815 293.244 50.4584L292.894 10.5804C292.894 8.30686 293.768 5.59631 291.317 6.20738C286.77 8.04399 286.42 8.13104 282.223 9.61774C280.036 10.4934 280.912 11.6284 282.486 12.1542C284.672 13.0298 284.846 14.3407 285.022 16.0032L285.461 52.1226ZM262.112 51.9468C261.849 53.7834 260.976 55.0072 257.475 56.057C254.677 56.9343 255.027 58.4176 257.825 58.508C265.436 57.4583 267.796 57.6307 274.617 58.3305C277.327 58.3305 276.891 56.5844 275.23 55.7941C271.207 54.2204 270.592 54.2203 269.805 50.286L269.455 10.3193C269.455 8.0457 270.333 5.33516 267.882 5.94623C263.334 7.78283 262.985 7.95865 258.787 9.35659C256.688 10.3193 257.473 11.369 259.05 11.893C261.233 12.7669 261.498 14.1666 261.583 15.7403L262.112 51.9468ZM240.686 36.2042C240.508 34.1935 240.249 32.6197 237.975 31.9199C236.311 31.7441 235.524 30.2574 237.885 29.3835C242.609 27.8097 243.309 27.5469 246.892 24.5735C248.029 24.0495 249.343 24.4864 248.729 26.4971C248.466 28.0709 248.555 28.7707 248.379 30.4332L248.466 51.2453C248.643 54.6556 251.267 55.183 252.926 55.8829C254.675 56.5827 254.762 58.5063 252.839 58.5934C245.405 57.5437 243.832 57.4566 236.659 58.8563C234.299 58.9433 233.773 57.1067 236.746 56.0553C239.633 55.0055 240.684 54.4815 240.769 52.0321L240.686 36.2042ZM175.358 32.3586C177.022 14.6053 188.39 7.25882 204.392 5.94623C221.272 6.03498 223.721 7.17006 223.458 16.5289C223.545 19.9393 221.359 20.7261 219.785 16.8788C217.948 13.4685 216.462 11.4578 212.177 9.70821C197.572 6.3849 186.815 15.7438 186.204 31.6587C185.154 54.048 210.254 60.6041 215.414 52.2114C216.55 50.0248 216.55 44.2538 216.373 39.4438C215.499 36.2964 212.439 36.5575 209.552 36.4705C206.405 36.7333 205.268 33.1471 209.465 33.1471C213.575 33.1471 221.533 33.5841 231.679 32.6214C234.652 32.7085 234.913 35.419 231.242 35.856C229.668 36.2059 226.254 36.1188 225.817 38.7423C225.467 52.3837 228.618 53.698 218.384 57.4583C205.268 60.5188 191.101 59.1191 183.143 51.4245C179.555 48.1865 175.094 40.9288 175.358 32.3586ZM141.512 41.4511C142.999 26.76 155.244 23.2609 161.538 23.2609C168.971 23.4367 171.332 25.8844 171.422 28.4208C171.509 30.8702 169.758 32.1811 167.834 31.657C163.724 30.6073 164.511 26.2343 159.003 25.9714C152.879 26.8453 149.118 33.7548 150.168 42.0639C151.218 50.3713 159.206 56.0712 169 51C171.364 50.4726 173.424 52.6891 171.5 54C153.576 65.1101 140.814 49.5862 141.512 41.4511ZM85.9806 16.703C85.5436 11.6302 83.9698 13.2056 80.1208 11.6302C76.9716 11.0191 76.7105 8.74551 79.858 8.65676C85.3678 9.09372 88.1671 9.18077 92.8013 8.3939C94.899 8.74381 95.8617 9.61774 96.6486 11.6302C100.496 19.8505 106.18 32.1827 110.029 40.4014C110.729 41.8881 111.079 42.151 111.953 40.3144L123.409 11.0174C124.635 8.568 126.033 7.95694 130.056 8.30685C136.964 8.39391 138.626 8.21809 142.038 7.86988C144.923 7.95694 144.749 10.2305 141.862 11.0174C137.402 11.0174 135.129 12.5911 134.429 15.9144L135.04 49.4974C135.74 54.4815 138.363 54.6539 142.999 55.7924C145.186 56.7551 144.66 58.2435 142.912 58.7658C133.118 57.629 129.793 57.7195 120.086 58.5917C117.287 58.8545 117.112 56.4922 120.086 55.7907C123.672 55.0038 124.635 54.3945 125.42 52.5561L124.633 20.11C124.544 18.8861 123.757 18.8861 123.233 20.3728L109.59 54.4798C108.366 57.4532 107.754 57.4532 106.354 55.1796L90.1744 20.197C89.7374 18.9732 89.1246 19.3214 89.0376 20.11L89.2117 50.9824C89.6504 54.5668 92.098 54.7427 97.1709 56.3164C98.5705 56.8404 98.6576 57.9772 97.5208 58.7641C87.6379 57.9772 86.0642 57.9772 76.8829 59.114C75.4832 59.114 74.7851 57.0162 77.057 56.6663C81.867 55.2667 83.1796 55.2667 83.9664 52.4691L85.9806 16.703Z" fill="#CF4037"/>
</svg>
