<svg width="100%" height="100%" viewBox="-30 -30 350 350" fill="none"
  xmlns="http://www.w3.org/2000/svg">
  <path
    d="M262.697 300H37.3025C22.2237 300 9.99997 287.776 9.99997 272.697V237.877C9.99997 234.546 10.6094 231.244 11.798 228.132L17.6723 212.757C21.7121 202.183 31.8575 195.199 43.1768 195.199H256.823C268.142 195.199 278.288 202.183 282.328 212.757L288.202 228.132C289.391 231.244 290 234.546 290 237.877V272.697C290 287.776 277.776 300 262.697 300Z"
    fill="#333333" />
  <path
    d="M52.2915 261.271L37.4996 260.316C18.9431 259.118 6.91326 240.216 13.6854 222.898L45.4614 141.639C49.5806 131.105 59.7352 124.172 71.0459 124.172H229.485C240.835 124.172 251.017 131.153 255.109 141.74L286.692 223.46C293.325 240.623 281.539 259.328 263.194 260.752L256.505 261.271H52.2915Z"
    fill="#95A5A6" />
  <ellipse cx="250.036" cy="281.685" rx="8.03571" ry="8.00995" fill="#2ECC71" />
  <path
    d="M262.697 237.914H37.3025C22.2237 237.914 9.99997 225.69 9.99997 210.611V175.791C9.99997 172.46 10.6094 169.158 11.798 166.046L17.6723 150.671C21.7121 140.097 31.8575 133.113 43.1768 133.113H256.823C268.142 133.113 278.288 140.097 282.328 150.671L288.202 166.046C289.391 169.158 290 172.46 290 175.791V210.611C290 225.69 277.776 237.914 262.697 237.914Z"
    fill="#333333" />
  <path
    d="M52.2915 199.185L37.4996 198.23C18.9431 197.032 6.91327 178.129 13.6854 160.811L45.4614 79.5525C49.5806 69.0186 59.7352 62.0861 71.0459 62.0861H229.485C240.835 62.0861 251.017 69.0668 255.109 79.6541L286.692 161.374C293.325 178.537 281.539 197.242 263.194 198.666L256.505 199.185H52.2915Z"
    fill="#95A5A6" />
  <ellipse cx="250.036" cy="219.599" rx="8.03571" ry="8.00995" fill="#2ECC71" />
  <path
    d="M262.697 175.828H37.3025C22.2238 175.828 9.99998 163.604 9.99998 148.525V113.704C9.99998 110.374 10.6094 107.071 11.798 103.96L17.6723 88.5849C21.7122 78.011 31.8576 71.0265 43.1768 71.0265H256.823C268.142 71.0265 278.288 78.011 282.328 88.5849L288.202 103.96C289.391 107.071 290 110.374 290 113.704V148.525C290 163.604 277.776 175.828 262.697 175.828Z"
    fill="#333333" />
  <path
    d="M52.2916 137.099L37.4997 136.144C18.9432 134.946 6.91329 116.043 13.6855 98.7253L45.4614 17.4664C49.5806 6.93248 59.7352 0 71.0459 0H229.485C240.835 0 251.017 6.98068 255.109 17.568L286.692 99.2881C293.325 116.451 281.539 135.156 263.194 136.58L256.505 137.099H52.2916Z"
    fill="#95A5A6" />
  <ellipse cx="250.036" cy="157.513" rx="8.03571" ry="8.00995" fill="#2ECC71" />
</svg>